<?xml version="1.0" encoding="UTF-8"?>
<svg width="150px" height="43px" viewBox="0 0 150 43" version="1.1" xmlns="http://www.w3.org/2000/svg" xmlns:xlink="http://www.w3.org/1999/xlink">
    <title>logo-tripinc-white</title>
    <defs>
        <polygon id="path-1" points="0 0 9.930192 0 9.930192 6.71488 0 6.71488"></polygon>
    </defs>
    <g id="logo-tripinc-white" stroke="none" stroke-width="1" fill="none" fill-rule="evenodd">
        <g transform="translate(-0.000000, -0.000000)">
            <path d="M24.78208,10.27216 L23.5384,1.33584 L1.24384,1.33584 L0,10.27216 L7.60048,10.27216 L7.60048,33.58016 L17.1816,33.58016 L17.1816,10.27216 L24.78208,10.27216 Z M33.02688,15.01664 L33.02688,11.56192 L24.2288,12.39104 L24.2288,33.58016 L33.57968,33.58016 L33.57968,24.87424 C33.57968,20.95888 35.74464,19.43872 39.3376,19.43872 L39.3376,11.42368 C36.11312,11.42368 34.13248,12.62144 33.02688,15.01664 L33.02688,15.01664 Z M46.29312,10.22608 C49.2872,10.22608 51.68256,7.92288 51.68256,5.11312 C51.68256,2.3032 49.2872,0 46.29312,0 C43.29904,0 40.90368,2.3032 40.90368,5.11312 C40.90368,7.92288 43.29904,10.22608 46.29312,10.22608 L46.29312,10.22608 Z M41.59472,33.58016 L50.9456,33.58016 L50.9456,11.46976 L41.59472,12.39104 L41.59472,33.58016 Z M69.27808,11.2856 C66.6984,11.2856 64.67168,12.29888 63.1976,14.09536 L63.1976,11.51584 L54.90624,12.29888 L54.90624,43.25344 L64.25712,43.25344 L64.25712,32.47456 C65.59296,33.62624 67.29728,34.22512 69.27808,34.22512 C74.89776,34.22512 79.55008,29.20416 79.55008,22.75536 C79.55008,16.3064 74.94384,11.2856 69.27808,11.2856 L69.27808,11.2856 Z M67.20512,26.53248 C65.08624,26.53248 63.47408,24.92032 63.47408,22.75536 C63.47408,20.5904 65.08624,18.97808 67.20512,18.97808 C69.32416,18.97808 70.93632,20.5904 70.93632,22.75536 C70.93632,24.92032 69.32416,26.53248 67.20512,26.53248 L67.20512,26.53248 Z M82.82,33.58016 L92.40112,33.58016 L92.40112,1.33584 L82.82,1.33584 L82.82,33.58016 Z M112.20816,11.2856 C109.62848,11.2856 107.46352,12.1608 105.94352,13.77296 L105.94352,11.51584 L96.77696,12.39104 L96.77696,33.58016 L106.12768,33.58016 L106.12768,21.37344 C106.12768,20.0376 107.00288,19.07024 108.33872,19.07024 C109.67456,19.07024 110.54976,20.0376 110.54976,21.37344 L110.54976,33.58016 L119.90064,33.58016 L119.90064,20.08368 C119.90064,14.92448 117.55136,11.2856 112.20816,11.2856 L112.20816,11.2856 Z M134.73232,34.31712 C136.89744,34.31712 138.73984,33.85648 140.5824,33.11952 L139.52288,25.51904 C137.9568,26.25616 136.62096,26.53248 135.51552,26.53248 C132.79776,26.53248 131.23152,24.78208 131.23152,22.70928 C131.23152,20.5904 132.84384,18.932 135.37728,18.932 C136.48272,18.932 137.72656,19.25456 139.20048,19.89936 L140.35216,12.20688 C138.69376,11.608 136.7592,11.19344 134.68624,11.19344 C127.68464,11.19344 122.38752,16.07616 122.38752,22.75536 C122.38752,29.38848 127.59264,34.31712 134.73232,34.31712 L134.73232,34.31712 Z" id="Fill-1" fill="#FFFFFF"></path>
            <g id="Group-5" transform="translate(140.378448, 1.254832)">
                <mask id="mask-2" fill="white">
                    <use xlink:href="#path-1"></use>
                </mask>
                <g id="Clip-4"></g>
                <path d="M9.93024,0 L7.28576,0 L4.70016,0 L0.45184,0 L0,2.32432 L1.60112,2.32432 L0.74896,6.71488 L3.39616,6.71488 L4.24848,2.32432 L4.25104,2.32432 L6.83104,2.32432 L5.97872,6.71488 L5.98832,6.71488 L8.62608,6.71488 L9.4784,2.32432 L9.48112,2.32432 L9.93024,0 Z M9.36048,1.2112 C9.36048,1.82336 8.83184,2.31488 8.192,2.31488 C7.60768,2.31488 7.1904,1.916 7.1904,1.35968 C7.1904,0.74752 7.71904,0.256 8.35888,0.256 C8.9432,0.256 9.36048,0.65488 9.36048,1.2112 L9.36048,1.2112 Z" id="Fill-3" fill="#FFFFFF" mask="url(#mask-2)"></path>
            </g>
        </g>
    </g>
</svg>